<svg aria-hidden="true" style="position: absolute; width: 0; height: 0; overflow: hidden;" version="1.1" xmlns="http://www.w3.org/2000/svg" xmlns:xlink="http://www.w3.org/1999/xlink">
<defs>

<symbol id="facebook" viewBox="0 0 32 32">
    <path d="M19.52 4.64c0.24 0 0.48 0 0.96 0v3.6c-0.24 0-0.72 0-1.2 0s-0.96 0-1.2 0.24c-0.24 0.24-0.24 0.48-0.24 1.040 0 0.48 0 0.8 0 1.28h2.64v3.040h-2.64v13.2h-4.080v-13.28h-2.16v-3.040h2.16v-1.040c0-1.76 0.24-3.040 0.72-3.6 0.72-1.040 2.16-1.52 4.32-1.52 0.24 0.080 0.48 0.080 0.72 0.080z"></path>
</symbol>

<symbol id="instagram" viewBox="0 0 32 32">
    <path d="M28.717 10.756c-0.016-1.074-0.215-2.14-0.596-3.145-0.667-1.716-2.024-3.073-3.743-3.737-0.994-0.373-2.044-0.573-3.108-0.596-1.368-0.061-1.801-0.078-5.273-0.078s-3.917 0-5.274 0.078c-1.062 0.023-2.112 0.223-3.106 0.596-1.719 0.664-3.078 2.021-3.743 3.737-0.374 0.992-0.576 2.041-0.596 3.101-0.061 1.367-0.080 1.8-0.080 5.265s0 3.909 0.080 5.265c0.021 1.062 0.222 2.109 0.596 3.104 0.667 1.714 2.024 3.071 3.744 3.735 0.989 0.386 2.040 0.605 3.106 0.639 1.369 0.061 1.803 0.080 5.274 0.080s3.916 0 5.274-0.080c1.062-0.021 2.113-0.221 3.108-0.595 1.719-0.666 3.076-2.022 3.743-3.737 0.374-0.994 0.574-2.041 0.596-3.104 0.061-1.365 0.080-1.798 0.080-5.265-0.003-3.466-0.003-3.906-0.082-5.264zM15.99 22.531c-3.631 0-6.572-2.936-6.572-6.561s2.941-6.561 6.572-6.561c3.628 0 6.572 2.936 6.572 6.561s-2.944 6.561-6.572 6.561zM22.823 10.696c-0.849 0-1.532-0.684-1.532-1.53s0.684-1.53 1.532-1.53c0.846 0 1.531 0.684 1.531 1.53s-0.685 1.53-1.531 1.53z"></path>
    <path d="M15.992 19.976c2.211 0 4.004-1.793 4.004-4.004s-1.793-4.004-4.004-4.004c-2.211 0-4.004 1.793-4.004 4.004s1.793 4.004 4.004 4.004z"></path>
</symbol>

<symbol id="youtube" viewBox="0 0 32 32">
    <path d="M24.24 6c-1.36-0.080-4.16-0.16-8.4-0.16h-0.56c-4.080 0-6.8 0.080-8.16 0.24-1.84 0.16-3.12 0.64-3.84 1.28-0.64 0.56-1.12 1.6-1.28 2.96-0.080 0.88-0.16 2.72-0.16 5.52v0.4c0 2.64 0.080 4.48 0.24 5.36 0.24 1.28 0.64 2.24 1.44 2.8 0.8 0.64 2.16 1.040 4.080 1.2 1.36 0.080 4.16 0.16 8.4 0.16h0.56c4.080 0 6.8-0.080 8.16-0.24 1.84-0.16 3.12-0.64 3.84-1.28 0.64-0.56 1.12-1.6 1.28-2.96 0.080-0.88 0.16-2.72 0.16-5.52v-0.4c0-2.64-0.080-4.48-0.24-5.36-0.24-1.28-0.64-2.24-1.44-2.8-0.8-0.64-2.16-1.040-4.080-1.2zM21.12 15.84l-8.8 5.28v-10.56l8.8 5.28z"></path>
</symbol>

<symbol id="ac" viewBox="0 0 32 32">
    <path d="M15.5537 5.3C14.2027 5.30031 12.8935 5.7805 11.8487 6.65893C10.8038 7.53736 10.0879 8.75981 9.8225 10.1185L9.7181 10.6575C9.69035 10.7781 9.68654 10.9032 9.70692 11.0253C9.7273 11.1474 9.77143 11.2641 9.8367 11.3683C9.90197 11.4726 9.98703 11.5623 10.0868 11.6321C10.1866 11.702 10.2991 11.7505 10.4175 11.7748C10.536 11.7991 10.658 11.7986 10.7763 11.7736C10.8946 11.7485 11.0067 11.6992 11.1061 11.6287C11.2054 11.5582 11.2899 11.468 11.3545 11.3633C11.4191 11.2586 11.4625 11.1416 11.4821 11.0194L11.5883 10.4822C11.7878 9.47479 12.3447 8.57922 13.1512 7.96889C13.9576 7.35856 14.9562 7.07691 15.9536 7.17849C16.9509 7.28006 17.876 7.75764 18.5497 8.51872C19.2233 9.2798 19.5976 10.2702 19.6001 11.2982C19.6001 12.4 19.1735 13.4567 18.414 14.236C17.6545 15.0153 16.6244 15.4534 15.5501 15.4538H2.5001C2.2614 15.4538 2.03248 15.5511 1.8637 15.7242C1.69492 15.8973 1.6001 16.1321 1.6001 16.3769C1.6001 16.6217 1.69492 16.8565 1.8637 17.0296C2.03248 17.2027 2.2614 17.3 2.5001 17.3H15.5501C17.0765 17.2616 18.5278 16.6129 19.5944 15.4923C20.6609 14.3716 21.2581 12.8678 21.2586 11.3018C21.259 9.73579 20.6627 8.23161 19.5969 7.11028C18.531 5.98896 17.0801 5.33932 15.5537 5.3ZM25.9001 13.6077C24.7066 13.6077 23.562 14.094 22.7181 14.9595C21.8742 15.8251 21.4001 16.999 21.4001 18.2231C21.4001 18.4679 21.4949 18.7027 21.6637 18.8758C21.8325 19.0489 22.0614 19.1462 22.3001 19.1462C22.5388 19.1462 22.7677 19.0489 22.9365 18.8758C23.1053 18.7027 23.2001 18.4679 23.2001 18.2231C23.2001 17.6754 23.3584 17.14 23.6551 16.6846C23.9518 16.2292 24.3735 15.8742 24.8669 15.6646C25.3602 15.455 25.9031 15.4002 26.4268 15.5071C26.9506 15.6139 27.4317 15.8777 27.8093 16.2649C28.1869 16.6522 28.444 17.1456 28.5482 17.6828C28.6524 18.22 28.5989 18.7768 28.3946 19.2828C28.1902 19.7888 27.8441 20.2213 27.4001 20.5256C26.9561 20.8299 26.4341 20.9923 25.9001 20.9923H2.5001C2.2614 20.9923 2.03248 21.0896 1.8637 21.2627C1.69492 21.4358 1.6001 21.6706 1.6001 21.9154C1.6001 22.1602 1.69492 22.395 1.8637 22.5681C2.03248 22.7412 2.2614 22.8385 2.5001 22.8385H20.0501C20.6468 22.8397 21.2187 23.084 21.6398 23.5176C22.0609 23.9513 22.2968 24.5387 22.2956 25.1508C22.2944 25.7628 22.0562 26.3493 21.6334 26.7812C21.2106 27.2131 20.6378 27.4551 20.0411 27.4538C19.5036 27.4542 18.9832 27.2594 18.5724 26.9039C18.1615 26.5484 17.8867 26.0552 17.7965 25.5117L17.7875 25.4563C17.7713 25.3339 17.7313 25.216 17.6699 25.1097C17.6085 25.0034 17.5269 24.9108 17.43 24.8375C17.333 24.7641 17.2227 24.7115 17.1056 24.6826C16.9884 24.6538 16.8668 24.6494 16.748 24.6697C16.6291 24.69 16.5155 24.7345 16.4137 24.8007C16.312 24.8668 16.2242 24.9533 16.1557 25.0549C16.0871 25.1565 16.0391 25.2711 16.0145 25.3921C15.99 25.5131 15.9894 25.6379 16.0127 25.7591L16.0217 25.8145C16.1817 26.7891 16.6733 27.674 17.4091 28.3121C18.145 28.9502 19.0775 29.3002 20.0411 29.3C21.1162 29.3005 22.1475 28.8633 22.9086 28.0845C23.6696 27.3056 24.0982 26.2488 24.1001 25.1462C24.1001 24.2914 23.8481 23.4975 23.4179 22.8385H25.9001C27.0936 22.8385 28.2382 22.3522 29.0821 21.4866C29.926 20.6211 30.4001 19.4472 30.4001 18.2231C30.4001 16.999 29.926 15.8251 29.0821 14.9595C28.2382 14.094 27.0936 13.6077 25.9001 13.6077Z"  />
</symbol>

<symbol id="airConditioner" viewBox="0 0 32 32">
<path d="M28.64 18.4c0 0 0 0 0 0h-25.28c-1.92 0-3.52-1.6-3.52-3.52v-11.52c0.16-1.92 1.6-3.36 3.52-3.36h25.12c1.92 0 3.52 1.6 3.52 3.52v11.36c0 1.92-1.44 3.52-3.36 3.52zM3.36 2.4c-0.64 0-1.12 0.48-1.12 1.12v11.36c0 0.64 0.48 1.12 1.12 1.12h25.12c0.64 0 1.12-0.48 1.12-1.12v-11.52c0-0.64-0.48-1.12-1.12-1.12v-1.12 1.28h-25.12z"></path>
<path d="M16 32c-0.64 0-1.28-0.48-1.28-1.28v-8c0-0.64 0.48-1.28 1.28-1.28s1.28 0.48 1.28 1.28v8c0 0.8-0.64 1.28-1.28 1.28zM26.24 29.76h-0.16c-2.4 0-4.48-1.92-4.48-4.48v-2.56c0-0.64 0.48-1.28 1.28-1.28s1.28 0.48 1.28 1.28v2.56c0 1.12 0.96 1.92 1.92 1.92h0.16c0.64 0 1.28 0.48 1.28 1.28s-0.64 1.28-1.28 1.28zM5.92 29.76h-0.16c-0.64 0-1.28-0.48-1.28-1.28s0.48-1.28 1.28-1.28h0.16c1.12 0 1.92-0.96 1.92-1.92v-2.56c0-0.64 0.48-1.28 1.28-1.28s1.28 0.48 1.28 1.28v2.56c0 2.56-2.080 4.48-4.48 4.48zM25.12 18.4c-0.64 0-1.28-0.48-1.28-1.28v-4.48c0-0.64-0.48-1.12-1.12-1.12h-13.6c-0.64 0-1.12 0.48-1.12 1.12v4.64c0 0.64-0.48 1.28-1.28 1.28s-1.28-0.48-1.28-1.28v-4.64c0-1.92 1.6-3.52 3.52-3.52h13.76c1.92 0 3.52 1.6 3.52 3.52v4.64c0.16 0.48-0.48 1.12-1.12 1.12z"></path>
</symbol>

<symbol id="alcove" viewBox="0 0 44 32">
    <path d="M2.518 2.29h11.981c0 0 0.001 0 0.001 0 0.104 0 0.199-0.042 0.267-0.109l-0 0 1.151-1.121c0.321-0.314 0.761-0.508 1.246-0.508 0.002 0 0.005 0 0.007 0h18.168c0.004-0 0.008-0 0.012-0 0.863 0 1.625 0.431 2.084 1.089l0.005 0.008 2.177 3.187c0.309 0.452 0.338 1.031 0.075 1.51-0.263 0.467-0.756 0.777-1.321 0.777-0.003 0-0.006 0-0.009-0h-9.363v0.924h4.796c0.006-0 0.013-0 0.020-0 1.282 0 2.387 0.762 2.885 1.858l0.008 0.020 2.808 6.42 2.461 0.96c1.313 0.513 2.162 1.736 2.162 3.116v5.945c0 0.887-0.739 1.609-1.649 1.609h-2.862c-0.332 1.967-2.089 3.475-4.2 3.475s-3.869-1.507-4.2-3.476h-15.645c-0.333 1.969-2.090 3.476-4.201 3.476-2.11 0-3.866-1.507-4.2-3.476h-5.716c-0.81 0-1.466-0.64-1.466-1.428v-21.8c0-1.355 1.129-2.456 2.518-2.456zM35.427 30.091c1.58 0 2.867-1.255 2.867-2.797 0-1.542-1.287-2.796-2.867-2.796-1.581 0-2.867 1.255-2.867 2.796 0 1.543 1.286 2.797 2.867 2.797zM28.999 26.615h2.228l0.019-0.1 0.013-0.068c0.011-0.053 0.024-0.106 0.038-0.159l0.009-0.033c0.017-0.063 0.034-0.125 0.055-0.188 0.004-0.018 0.011-0.035 0.018-0.054 0.033-0.099 0.057-0.165 0.083-0.23l-0.011 0.031 0.045-0.11 0.033-0.073 0.047-0.105 0.036-0.073 0.053-0.099 0.039-0.072 0.057-0.097 0.042-0.068 0.064-0.097 0.043-0.063c0.024-0.034 0.049-0.068 0.075-0.102l0.039-0.053c0.086-0.109 0.167-0.205 0.252-0.297l-0.003 0.004 0.041-0.042 0.093-0.096 0.055-0.051c0.072-0.070 0.148-0.137 0.226-0.202l0.007-0.005 0.064-0.050c0.041-0.033 0.091-0.071 0.143-0.109l0.013-0.009 0.094-0.065 0.066-0.044c0.033-0.022 0.066-0.042 0.1-0.063l0.066-0.040c0.036-0.022 0.074-0.042 0.111-0.063l0.057-0.033c0.024-0.014 0.078-0.041 0.132-0.067l0.031-0.014 0.012-0.006c0.060-0.029 0.119-0.055 0.18-0.079 0.019-0.009 0.040-0.015 0.058-0.023l0.126-0.049 0.072-0.025c0.134-0.048 0.303-0.096 0.476-0.134l0.029-0.005 0.084-0.018c0.084-0.017 0.194-0.034 0.306-0.047l0.018-0.002 0.079-0.009 0.138-0.011c0.022 0 0.045-0.003 0.068-0.003 0.062-0.004 0.135-0.006 0.209-0.006s0.146 0.002 0.219 0.006l-0.010-0c0.022 0 0.044 0.002 0.068 0.004 0.045 0.002 0.092 0.006 0.138 0.011 0.026 0.001 0.053 0.006 0.079 0.008 0.158 0.017 0.297 0.040 0.434 0.071l-0.025-0.005c0.201 0.042 0.37 0.090 0.535 0.148l-0.029-0.009 0.072 0.025 0.126 0.049 0.058 0.022c0.061 0.025 0.121 0.052 0.18 0.081l0.012 0.006c0.055 0.026 0.109 0.053 0.162 0.082l0.057 0.032c0.039 0.020 0.076 0.041 0.113 0.063l0.066 0.040 0.099 0.063 0.067 0.044 0.094 0.066c0.062 0.043 0.112 0.082 0.162 0.122l-0.006-0.005 0.064 0.050c0.086 0.073 0.162 0.14 0.236 0.21l-0.003-0.003 0.055 0.051 0.093 0.096 0.041 0.042c0.044 0.046 0.086 0.095 0.127 0.143l0.017 0.020c0.035 0.043 0.071 0.085 0.105 0.13l0.039 0.053 0.075 0.102 0.043 0.063 0.064 0.097 0.042 0.068 0.056 0.097 0.040 0.072 0.053 0.099 0.036 0.073c0.017 0.035 0.033 0.070 0.047 0.105l0.033 0.072c0.019 0.041 0.044 0.101 0.066 0.162l0.006 0.019 0.045 0.129 0.019 0.055c0.019 0.062 0.038 0.124 0.055 0.188l0.008 0.033c0.013 0.052 0.025 0.105 0.036 0.158l0.014 0.068 0.019 0.1h2.861c0.001 0 0.002 0 0.003 0 0.139 0 0.252-0.112 0.254-0.25v-2.845h-1.086v-1.357h1.086v-1.743c0-0.822-0.505-1.55-1.288-1.856l-2.604-1.015h-9.856v9.067zM28.999 16.19h8.938l-2.508-5.735c-0.284-0.626-0.903-1.053-1.622-1.053-0.004 0-0.008 0-0.012 0h-4.795v6.787zM11.382 30.091c1.581 0 2.867-1.255 2.867-2.797 0-1.542-1.286-2.796-2.867-2.796-0.050 0-0.098 0.001-0.147 0.004-1.318 0.065-2.402 1.002-2.662 2.229-0.026 0.121-0.045 0.265-0.054 0.412l-0 0.008c-0.002 0.038-0.003 0.083-0.003 0.129 0 0.005 0 0.010 0 0.016v-0.001c0 1.543 1.286 2.797 2.866 2.797zM1.391 22.163h1.086v1.357h-1.087v3.023c0 0.040 0.033 0.072 0.074 0.072h5.716l0.020-0.099c0.004-0.023 0.008-0.047 0.013-0.071 0.011-0.052 0.022-0.104 0.036-0.154l0.009-0.036c0.017-0.063 0.035-0.125 0.055-0.188l0.019-0.055 0.044-0.128 0.028-0.070c0.040-0.102 0.066-0.163 0.093-0.223l-0.016 0.039 0.047-0.103c0.011-0.025 0.024-0.050 0.038-0.074l0.051-0.099 0.041-0.072c0.078-0.134 0.146-0.24 0.217-0.344l-0.012 0.019 0.074-0.1 0.041-0.055c0.033-0.043 0.066-0.085 0.103-0.127l0.018-0.022c0.042-0.049 0.084-0.097 0.127-0.143l0.042-0.044 0.093-0.094 0.055-0.052 0.085-0.081 0.061-0.052 0.087-0.073 0.064-0.052c0.038-0.030 0.088-0.069 0.139-0.106l0.015-0.011c0.031-0.022 0.062-0.044 0.094-0.064l0.066-0.045 0.099-0.063 0.066-0.040 0.113-0.063 0.058-0.033c0.053-0.028 0.107-0.054 0.161-0.079 0.004-0.002 0.009-0.006 0.014-0.007 0.058-0.029 0.119-0.055 0.179-0.079l0.184-0.072 0.073-0.025c0.012-0.005 0.050-0.018 0.089-0.030l0.027-0.007c0.097-0.032 0.228-0.067 0.361-0.095l0.029-0.005 0.083-0.019c0.084-0.017 0.194-0.034 0.306-0.047l0.018-0.002 0.079-0.009 0.139-0.011c0.022 0 0.044-0.003 0.067-0.003 0.062-0.004 0.135-0.006 0.209-0.006s0.146 0.002 0.219 0.006l-0.010-0c0.023 0 0.045 0.002 0.068 0.004 0.046 0.002 0.093 0.006 0.138 0.011 0.026 0.001 0.053 0.006 0.079 0.008 0.089 0.010 0.16 0.020 0.23 0.032l-0.023-0.003 0.117 0.020 0.084 0.018c0.133 0.028 0.237 0.054 0.34 0.085l-0.030-0.008 0.079 0.024c0.039 0.011 0.077 0.024 0.115 0.038l0.073 0.025 0.126 0.049 0.058 0.022c0.148 0.062 0.264 0.118 0.377 0.179l-0.023-0.011 0.058 0.032 0.113 0.063 0.066 0.040 0.099 0.063 0.067 0.044 0.093 0.066c0.060 0.042 0.111 0.080 0.159 0.12l-0.005-0.004 0.065 0.052c0.030 0.023 0.058 0.049 0.087 0.073l0.060 0.052 0.141 0.132 0.093 0.095 0.041 0.044c0.082 0.089 0.164 0.184 0.241 0.283l0.007 0.010 0.040 0.053c0.025 0.033 0.051 0.067 0.074 0.102l0.043 0.064c0.049 0.070 0.103 0.156 0.153 0.243l0.010 0.018 0.040 0.072 0.052 0.099 0.036 0.073 0.049 0.105 0.032 0.072c0.017 0.038 0.031 0.075 0.045 0.113l0.026 0.068c0.017 0.043 0.031 0.086 0.045 0.13l0.019 0.053c0.020 0.062 0.038 0.126 0.055 0.188l0.007 0.031c0.014 0.053 0.026 0.107 0.039 0.161l0.012 0.066 0.021 0.103h12.023v-20.171c0-0.375 0.311-0.68 0.695-0.68h10.060c0.017 0 0.070 0 0.103-0.061 0.009-0.015 0.015-0.034 0.015-0.053 0-0.024-0.008-0.046-0.022-0.063l0 0-2.176-3.186c-0.208-0.3-0.551-0.493-0.939-0.493-0.002 0-0.003 0-0.005 0h-18.168c-0 0-0 0-0.001 0-0.104 0-0.199 0.042-0.267 0.109l0-0-1.151 1.122c-0.321 0.313-0.76 0.506-1.244 0.506-0.003 0-0.006 0-0.008-0h-11.98c-0.004-0-0.008-0-0.012-0-0.61 0-1.106 0.49-1.114 1.098v17.418z"></path>
    <path d="M19.422 7.501h4.402c0.888 0 1.612 0.706 1.612 1.574v14.527c0 0.375-0.311 0.679-0.695 0.679h-6.234c-0.002 0-0.005 0-0.008 0-0.377 0-0.682-0.303-0.687-0.678v-14.527c0-0.868 0.722-1.574 1.611-1.574zM19.201 22.922h4.843v-7.981h-4.844v7.981zM19.201 13.583h4.843v-4.51c-0.001-0.12-0.099-0.216-0.218-0.216-0.001 0-0.002 0-0.002 0h-4.403c-0.121 0-0.221 0.097-0.221 0.216v4.508h0.001zM5.345 7.501h8.51c0.984 0 1.784 0.781 1.784 1.74v3.959c0 0.96-0.801 1.74-1.784 1.74h-8.511c-0.983 0-1.783-0.78-1.783-1.74v-3.959c0-0.96 0.8-1.74 1.784-1.74zM4.952 13.201c0 0.21 0.177 0.383 0.393 0.383h8.51c0.001 0 0.003 0 0.004 0 0.213 0 0.385-0.171 0.388-0.383v-3.959c0-0.211-0.177-0.383-0.393-0.383h-8.511c-0.001 0-0.002 0-0.003 0-0.213 0-0.385 0.171-0.388 0.383v3.959z"></path>
</symbol>

<symbol id="automatic" viewBox="0 0 32 32">
    <path fill="none" stroke="#101828" stroke-linejoin="round" stroke-linecap="round" stroke-miterlimit="4" stroke-width="2.4" d="M22.667 14.667h2c1.105 0 2-0.895 2-2s-0.895-2-2-2v0h-2v6.666M22.667 22.667v5.333h1.333c1.473 0 2.666-1.194 2.666-2.666s-1.194-2.666-2.666-2.666v0h-1.333zM4 6.667c-0.001 0.019-0.001 0.042-0.001 0.065 0 1.473 1.194 2.667 2.667 2.667s2.667-1.194 2.667-2.667c0-0.023-0-0.046-0.001-0.069l0 0.003c-0.037-1.445-1.216-2.602-2.666-2.602s-2.63 1.157-2.666 2.598l-0 0.003z"></path>
    <path fill="none" stroke="#101828" stroke-linejoin="round" stroke-linecap="round" stroke-miterlimit="4" stroke-width="2.4" d="M6.667 9.333v4c0 0 0 0.001 0 0.002 0 0.736 0.597 1.333 1.333 1.333h4M12 14.667v9.333c0 0.736 0.597 1.333 1.333 1.333v0h4M12 14.667h5.333"></path>
</symbol>

<symbol id="bathroom" viewBox="0 0 32 32">
    <path d="M29 17.5h-24v-11.25c0-0.003 0-0.006 0-0.009 0-0.888 0.361-1.691 0.944-2.271l0.025-0.025c0.584-0.584 1.391-0.945 2.283-0.945 0.501 0 0.976 0.114 1.399 0.318l-0.019-0.008c-0.444 0.727-0.707 1.607-0.707 2.548 0 1.363 0.551 2.597 1.443 3.491l0.684 0.684-1.26 1.26 1.414 1.414 9.5-9.5-1.414-1.414-1.26 1.26-0.684-0.684c-0.894-0.892-2.128-1.443-3.49-1.443-1.054 0-2.031 0.33-2.834 0.892l0.016-0.011c-0.791-0.506-1.755-0.807-2.79-0.807-1.443 0-2.749 0.585-3.695 1.53l-0.025 0.025c-0.945 0.94-1.53 2.242-1.53 3.681 0 0.005 0 0.010 0 0.015v-0.001 11.25h-2v2h2v1.919c0 0 0 0 0 0 0 0.17 0.028 0.332 0.080 0.484l-0.003-0.011 1.861 5.581c0.204 0.601 0.763 1.026 1.422 1.026 0 0 0.001 0 0.001 0h0.806l-0.729 2.5h2.083l0.729-2.5h13.006l0.75 2.5h2.087l-0.75-2.5h1.296c0 0 0.001 0 0.002 0 0.658 0 1.218-0.425 1.419-1.015l0.003-0.011 1.86-5.581c0.049-0.142 0.077-0.305 0.077-0.474v-1.919h2v-2zM11.783 3.783c0.532-0.531 1.265-0.859 2.076-0.859s1.544 0.328 2.076 0.859l0.684 0.684-4.152 4.152-0.684-0.684c-0.53-0.532-0.859-1.266-0.859-2.076s0.328-1.544 0.859-2.076l-0 0zM27 21.337l-1.721 5.163h-18.558l-1.721-5.163v-1.837h22z"></path>
</symbol>

<symbol id="beds" viewBox="0 0 32 32">
    <path fill="none" stroke="#101828" stroke-linejoin="round" stroke-linecap="round" stroke-miterlimit="4" stroke-width="2.24" d="M3 26v-7c0.006-2.207 1.793-3.994 3.999-4h18.001c2.207 0.006 3.994 1.793 4 3.999v7.001M24 15h-18v-6.501c0.005-1.379 1.122-2.496 2.5-2.499h15c1.379 0.005 2.496 1.122 2.499 2.5v6.5h-2z"></path>
    <path fill="none" stroke="#101828" stroke-linejoin="round" stroke-linecap="round" stroke-miterlimit="4" stroke-width="2.24" d="M3 26v-0.501c0.003-0.827 0.673-1.497 1.501-1.499h22.999c0.828 0.002 1.499 0.673 1.501 1.501v0.499M7 15v-1c0.004-1.103 0.897-1.996 2-2h5c1.103 0.004 1.996 0.897 2 2v0M16 14v1M16 14c0.003-1.103 0.897-1.997 2-2h5c1.103 0.004 1.996 0.897 2 2v1"></path>
</symbol>

<symbol id="calendar" viewBox="0 0 32 32">
    <path d="M25.28 30.56h-18.56c-2.080 0-3.84-1.76-3.84-3.84v-18.72c0-2.080 1.76-3.84 3.84-3.84h2.88v-1.44c0-0.64 0.48-1.28 1.28-1.28s1.28 0.48 1.28 1.28v1.44h8.32v-1.44c0-0.64 0.48-1.28 1.28-1.28s1.28 0.48 1.28 1.28v1.44h2.72c2.080 0 3.84 1.76 3.84 3.84v18.72c-0.48 2.080-2.080 3.84-4.32 3.84zM5.12 14.56v12.16c0 0.8 0.64 1.44 1.44 1.44h18.72c0.8 0 1.44-0.64 1.44-1.44v-12.16h-21.6zM5.12 12.16h21.6v-4.16c0-0.8-0.64-1.44-1.44-1.44h-2.72v1.44c0 0.64-0.48 1.28-1.28 1.28s-1.12-0.64-1.12-1.28v-1.44h-8.32v1.44c0 0.64-0.48 1.28-1.28 1.28s-1.12-0.64-1.12-1.28v-1.44h-2.72c-0.8 0-1.6 0.64-1.6 1.44v4.16z"></path>
</symbol>

<symbol id="CD" viewBox="0 0 32 32">
    <path d="M16 29.28c-7.2 0-13.12-5.92-13.12-13.12s5.92-13.28 13.12-13.28 13.12 5.92 13.12 13.12-5.92 13.28-13.12 13.28zM16 5.28c-5.92 0-10.88 4.8-10.88 10.88 0 5.92 4.8 10.88 10.88 10.88 5.92 0 10.88-4.8 10.88-10.88s-4.96-10.88-10.88-10.88z"></path>
    <path d="M8.64 17.28c-0.64 0-1.28-0.48-1.28-1.28 0-4.64 3.84-8.48 8.48-8.48 0.64 0 1.28 0.48 1.28 1.28s-0.48 1.12-1.12 1.12c-3.36 0-6.080 2.72-6.080 6.080 0 0.64-0.64 1.28-1.28 1.28z"></path>
    <path d="M16 20.48c-2.56 0-4.48-2.080-4.48-4.48 0-2.56 2.080-4.48 4.48-4.48 2.56 0 4.48 2.080 4.48 4.48 0 2.56-1.92 4.48-4.48 4.48zM16 13.92c-1.12 0-2.080 0.96-2.080 2.080s0.96 2.080 2.080 2.080 2.080-0.96 2.080-2.080-0.96-2.080-2.080-2.080z"></path>
</symbol>

<symbol id="close-btn" viewBox="0 0 32 32">
    <path d="M24 25.5c-0.4 0-0.8-0.1-1.1-0.4l-6.9-7-6.9 6.9c-0.6 0.6-1.5 0.6-2.1 0s-0.6-1.5 0-2.1l6.9-6.9-7-6.9c-0.6-0.6-0.6-1.5 0-2.1s1.5-0.6 2.1 0l6.9 6.9 6.9-6.9c0.6-0.6 1.5-0.6 2.1 0s0.6 1.5 0 2.1l-6.8 6.9 6.9 6.9c0.6 0.6 0.6 1.5 0 2.1-0.2 0.4-0.6 0.5-1 0.5z"></path>
</symbol>

<symbol id="freezer" viewBox="0 0 32 32">
    <path d="M22.72 30.080h-1.6c-0.48 0-0.96-0.16-1.44-0.64-0.32-0.32-0.64-0.8-0.64-1.44v-0.64c0-0.64 0.48-1.12 1.12-1.12s1.12 0.48 1.12 1.12v0.64h1.44v-0.64c0-0.64 0.48-1.12 1.12-1.12s1.12 0.48 1.12 1.12v0.64c-0.32 1.12-1.28 2.080-2.24 2.080zM11.040 30.080h-1.6c-1.12 0-1.92-0.96-1.92-1.92v-0.64c0-0.64 0.48-1.12 0.96-1.12s0.96 0.48 0.96 1.12v0.64h1.44v-0.64c0-0.64 0.48-1.12 0.96-1.12s0.96 0.48 0.96 1.12v0.64c0.16 0.96-0.8 1.92-1.76 1.92zM10.24 20.48c-0.64 0-0.96-0.48-0.96-1.12v-4c0-0.48 0.48-0.96 0.96-0.96s0.96 0.48 0.96 0.96v4c0.16 0.64-0.32 1.12-0.96 1.12zM25.44 14.24h-18.88c-0.64 0-0.96-0.48-0.96-0.96s0.48-0.96 0.96-0.96h18.72c0.64 0 1.12 0.48 1.12 0.96s-0.48 0.96-0.96 0.96zM10.24 11.68c-0.48 0-0.96-0.48-0.96-1.12v-4c0-0.64 0.48-0.96 0.96-0.96s0.96 0.48 0.96 0.96v4c0.16 0.64-0.32 1.12-0.96 1.12z"></path>
    <path d="M23.36 28.48h-14.72c-1.6 0-3.040-1.44-3.040-3.040v-20.48c0-1.6 1.44-3.040 3.040-3.040h14.72c1.6 0 3.040 1.44 3.040 3.040v20.32c0 1.76-1.28 3.2-3.040 3.2zM8.64 4c-0.64 0-0.96 0.48-0.96 0.96v20.32c0 0.48 0.48 0.96 0.96 0.96h14.72c0.48 0 0.96-0.48 0.96-0.96v-20.32c0-0.48-0.48-0.96-0.96-0.96h-14.72z"></path>
</symbol>

<symbol id="fully-integrated" viewBox="0 0 44 32">
    <path d="M2.518 2.29h11.981c0 0 0.001 0 0.001 0 0.104 0 0.199-0.042 0.267-0.109l-0 0 1.151-1.121c0.321-0.314 0.761-0.508 1.246-0.508 0.002 0 0.005 0 0.007 0h18.168c0.004-0 0.008-0 0.012-0 0.863 0 1.625 0.431 2.084 1.089l0.005 0.008 2.177 3.187c0.309 0.452 0.338 1.031 0.075 1.51-0.263 0.467-0.756 0.777-1.321 0.777-0.003 0-0.006 0-0.009-0h-9.363v0.924h4.796c0.006-0 0.013-0 0.020-0 1.282 0 2.387 0.762 2.885 1.858l0.008 0.020 2.808 6.42 2.461 0.96c1.313 0.513 2.162 1.736 2.162 3.116v5.945c0 0.887-0.739 1.609-1.649 1.609h-2.862c-0.332 1.967-2.089 3.475-4.2 3.475s-3.869-1.507-4.2-3.476h-15.645c-0.333 1.969-2.090 3.476-4.201 3.476-2.11 0-3.866-1.507-4.2-3.476h-5.716c-0.81 0-1.466-0.64-1.466-1.428v-21.8c0-1.355 1.129-2.456 2.518-2.456zM35.427 30.091c1.58 0 2.867-1.255 2.867-2.797 0-1.542-1.287-2.796-2.867-2.796-1.581 0-2.867 1.255-2.867 2.796 0 1.543 1.286 2.797 2.867 2.797zM28.999 26.615h2.228l0.019-0.1 0.013-0.068c0.011-0.053 0.024-0.106 0.038-0.159l0.009-0.033c0.017-0.063 0.034-0.125 0.055-0.188 0.004-0.018 0.011-0.035 0.018-0.054 0.033-0.099 0.057-0.165 0.083-0.23l-0.011 0.031 0.045-0.11 0.033-0.073 0.047-0.105 0.036-0.073 0.053-0.099 0.039-0.072 0.057-0.097 0.042-0.068 0.064-0.097 0.043-0.063c0.024-0.034 0.049-0.068 0.075-0.102l0.039-0.053c0.086-0.109 0.167-0.205 0.252-0.297l-0.003 0.004 0.041-0.042 0.093-0.096 0.055-0.051c0.072-0.070 0.148-0.137 0.226-0.202l0.007-0.005 0.064-0.050c0.041-0.033 0.091-0.071 0.143-0.109l0.013-0.009 0.094-0.065 0.066-0.044c0.033-0.022 0.066-0.042 0.1-0.063l0.066-0.040c0.036-0.022 0.074-0.042 0.111-0.063l0.057-0.033c0.024-0.014 0.078-0.041 0.132-0.067l0.031-0.014 0.012-0.006c0.060-0.029 0.119-0.055 0.18-0.079 0.019-0.009 0.040-0.015 0.058-0.023l0.126-0.049 0.072-0.025c0.134-0.048 0.303-0.096 0.476-0.134l0.029-0.005 0.084-0.018c0.084-0.017 0.194-0.034 0.306-0.047l0.018-0.002 0.079-0.009 0.138-0.011c0.022 0 0.045-0.003 0.068-0.003 0.062-0.004 0.135-0.006 0.209-0.006s0.146 0.002 0.219 0.006l-0.010-0c0.022 0 0.044 0.002 0.068 0.004 0.045 0.002 0.092 0.006 0.138 0.011 0.026 0.001 0.053 0.006 0.079 0.008 0.158 0.017 0.297 0.040 0.434 0.071l-0.025-0.005c0.201 0.042 0.37 0.090 0.535 0.148l-0.029-0.009 0.072 0.025 0.126 0.049 0.058 0.022c0.061 0.025 0.121 0.052 0.18 0.081l0.012 0.006c0.055 0.026 0.109 0.053 0.162 0.082l0.057 0.032c0.039 0.020 0.076 0.041 0.113 0.063l0.066 0.040 0.099 0.063 0.067 0.044 0.094 0.066c0.062 0.043 0.112 0.082 0.162 0.122l-0.006-0.005 0.064 0.050c0.086 0.073 0.162 0.14 0.236 0.21l-0.003-0.003 0.055 0.051 0.093 0.096 0.041 0.042c0.044 0.046 0.086 0.095 0.127 0.143l0.017 0.020c0.035 0.043 0.071 0.085 0.105 0.13l0.039 0.053 0.075 0.102 0.043 0.063 0.064 0.097 0.042 0.068 0.056 0.097 0.040 0.072 0.053 0.099 0.036 0.073c0.017 0.035 0.033 0.070 0.047 0.105l0.033 0.072c0.019 0.041 0.044 0.101 0.066 0.162l0.006 0.019 0.045 0.129 0.019 0.055c0.019 0.062 0.038 0.124 0.055 0.188l0.008 0.033c0.013 0.052 0.025 0.105 0.036 0.158l0.014 0.068 0.019 0.1h2.861c0.001 0 0.002 0 0.003 0 0.139 0 0.252-0.112 0.254-0.25v-2.845h-1.086v-1.357h1.086v-1.743c0-0.822-0.505-1.55-1.288-1.856l-2.604-1.015h-9.856v9.067zM28.999 16.19h8.938l-2.508-5.735c-0.284-0.626-0.903-1.053-1.622-1.053-0.004 0-0.008 0-0.012 0h-4.795v6.787zM11.382 30.091c1.581 0 2.867-1.255 2.867-2.797 0-1.542-1.286-2.796-2.867-2.796-0.050 0-0.098 0.001-0.147 0.004-1.318 0.065-2.402 1.002-2.662 2.229-0.026 0.121-0.045 0.265-0.054 0.412l-0 0.008c-0.002 0.038-0.003 0.083-0.003 0.129 0 0.005 0 0.010 0 0.016v-0.001c0 1.543 1.286 2.797 2.866 2.797zM1.391 22.163h1.086v1.357h-1.087v3.023c0 0.040 0.033 0.072 0.074 0.072h5.716l0.020-0.099c0.004-0.023 0.008-0.047 0.013-0.071 0.011-0.052 0.022-0.104 0.036-0.154l0.009-0.036c0.017-0.063 0.035-0.125 0.055-0.188l0.019-0.055 0.044-0.128 0.028-0.070c0.040-0.102 0.066-0.163 0.093-0.223l-0.016 0.039 0.047-0.103c0.011-0.025 0.024-0.050 0.038-0.074l0.051-0.099 0.041-0.072c0.078-0.134 0.146-0.24 0.217-0.344l-0.012 0.019 0.074-0.1 0.041-0.055c0.033-0.043 0.066-0.085 0.103-0.127l0.018-0.022c0.042-0.049 0.084-0.097 0.127-0.143l0.042-0.044 0.093-0.094 0.055-0.052 0.085-0.081 0.061-0.052 0.087-0.073 0.064-0.052c0.038-0.030 0.088-0.069 0.139-0.106l0.015-0.011c0.031-0.022 0.062-0.044 0.094-0.064l0.066-0.045 0.099-0.063 0.066-0.040 0.113-0.063 0.058-0.033c0.053-0.028 0.107-0.054 0.161-0.079 0.004-0.002 0.009-0.006 0.014-0.007 0.058-0.029 0.119-0.055 0.179-0.079l0.184-0.072 0.073-0.025c0.012-0.005 0.050-0.018 0.089-0.030l0.027-0.007c0.097-0.032 0.228-0.067 0.361-0.095l0.029-0.005 0.083-0.019c0.084-0.017 0.194-0.034 0.306-0.047l0.018-0.002 0.079-0.009 0.139-0.011c0.022 0 0.044-0.003 0.067-0.003 0.062-0.004 0.135-0.006 0.209-0.006s0.146 0.002 0.219 0.006l-0.010-0c0.023 0 0.045 0.002 0.068 0.004 0.046 0.002 0.093 0.006 0.138 0.011 0.026 0.001 0.053 0.006 0.079 0.008 0.089 0.010 0.16 0.020 0.23 0.032l-0.023-0.003 0.117 0.020 0.084 0.018c0.133 0.028 0.237 0.054 0.34 0.085l-0.030-0.008 0.079 0.024c0.039 0.011 0.077 0.024 0.115 0.038l0.073 0.025 0.126 0.049 0.058 0.022c0.148 0.062 0.264 0.118 0.377 0.179l-0.023-0.011 0.058 0.032 0.113 0.063 0.066 0.040 0.099 0.063 0.067 0.044 0.093 0.066c0.060 0.042 0.111 0.080 0.159 0.12l-0.005-0.004 0.065 0.052c0.030 0.023 0.058 0.049 0.087 0.073l0.060 0.052 0.141 0.132 0.093 0.095 0.041 0.044c0.082 0.089 0.164 0.184 0.241 0.283l0.007 0.010 0.040 0.053c0.025 0.033 0.051 0.067 0.074 0.102l0.043 0.064c0.049 0.070 0.103 0.156 0.153 0.243l0.010 0.018 0.040 0.072 0.052 0.099 0.036 0.073 0.049 0.105 0.032 0.072c0.017 0.038 0.031 0.075 0.045 0.113l0.026 0.068c0.017 0.043 0.031 0.086 0.045 0.13l0.019 0.053c0.020 0.062 0.038 0.126 0.055 0.188l0.007 0.031c0.014 0.053 0.026 0.107 0.039 0.161l0.012 0.066 0.021 0.103h12.023v-20.171c0-0.375 0.311-0.68 0.695-0.68h10.060c0.017 0 0.070 0 0.103-0.061 0.009-0.015 0.015-0.034 0.015-0.053 0-0.024-0.008-0.046-0.022-0.063l0 0-2.176-3.186c-0.208-0.3-0.551-0.493-0.939-0.493-0.002 0-0.003 0-0.005 0h-18.168c-0 0-0 0-0.001 0-0.104 0-0.199 0.042-0.267 0.109l0-0-1.151 1.122c-0.321 0.313-0.76 0.506-1.244 0.506-0.003 0-0.006 0-0.008-0h-11.98c-0.004-0-0.008-0-0.012-0-0.61 0-1.106 0.49-1.114 1.098v17.418z"></path>
    <path d="M19.422 7.501h4.402c0.888 0 1.612 0.706 1.612 1.574v14.527c0 0.375-0.311 0.679-0.695 0.679h-6.234c-0.002 0-0.005 0-0.008 0-0.377 0-0.682-0.303-0.687-0.678v-14.527c0-0.868 0.722-1.574 1.611-1.574zM19.201 22.922h4.843v-7.981h-4.844v7.981zM19.201 13.583h4.843v-4.51c-0.001-0.12-0.099-0.216-0.218-0.216-0.001 0-0.002 0-0.002 0h-4.403c-0.121 0-0.221 0.097-0.221 0.216l0.001 4.508z"></path>
</symbol>

<symbol id="gas" viewBox="0 0 32 32">
    <path d="M25.072 13.992c-0.368-0.454-0.816-0.848-1.232-1.24-1.072-0.906-2.288-1.557-3.312-2.509-2.384-2.206-2.912-5.848-1.392-8.643-1.52 0.347-2.848 1.133-3.982 1.995-4.144 3.142-5.776 8.688-3.824 13.448 0.064 0.152 0.128 0.304 0.128 0.499 0 0.333-0.24 0.635-0.56 0.755-0.368 0.152-0.752 0.061-1.056-0.181-0.090-0.070-0.165-0.155-0.222-0.252l-0.002-0.004c-1.808-2.162-2.096-5.259-0.88-7.738-2.67 2.054-4.126 5.531-3.918 8.81 0.096 0.755 0.192 1.512 0.464 2.267 0.224 0.906 0.656 1.813 1.136 2.614 1.728 2.614 4.72 4.488 7.936 4.864 3.422 0.41 7.085-0.179 9.709-2.416 2.928-2.509 3.952-6.528 2.448-9.974l-0.208-0.392c-0.336-0.696-1.232-1.904-1.232-1.904zM20.016 23.512c-0.448 0.362-1.184 0.755-1.76 0.906-1.792 0.605-3.582-0.24-4.638-1.238 1.904-0.422 3.040-1.752 3.376-3.098 0.272-1.21-0.24-2.206-0.448-3.37-0.192-1.12-0.16-2.070 0.272-3.114 0.304 0.574 0.624 1.149 1.008 1.602 1.232 1.512 3.168 2.176 3.584 4.232 0.064 0.211 0.096 0.422 0.096 0.65 0.048 1.238-0.528 2.598-1.488 3.43z"></path>
</symbol>

<symbol id="hob" viewBox="0 0 32 32">
    <path fill="none" stroke="#101828" style="stroke: var(--color1, #101828)" stroke-linejoin="miter" stroke-linecap="butt" stroke-miterlimit="4" stroke-width="2.4" d="M12 6.667h16c0.736 0 1.333 0.597 1.333 1.333v0 17.333c0 0 0 0.001 0 0.002 0 0.736-0.597 1.333-1.333 1.333h-16M12 6.667h-8c-0.736 0-1.333 0.597-1.333 1.333v0 17.333c0 0 0 0.001 0 0.002 0 0.736 0.597 1.333 1.333 1.333h8M12 6.667v20"></path>
    <path fill="none" stroke="#101828" style="stroke: var(--color1, #101828)" stroke-linejoin="round" stroke-linecap="round" stroke-miterlimit="4" stroke-width="2.4" d="M7.333 11.333v2.667M24.667 10.667l-8 11.333"></path>
    <path d="M8.667 18c0-0.737-0.597-1.334-1.334-1.334s-1.334 0.597-1.334 1.334v0c0 0.737 0.597 1.334 1.334 1.334s1.334-0.597 1.334-1.334v0zM8.667 22c0-0.737-0.597-1.334-1.334-1.334s-1.334 0.597-1.334 1.334v0c0 0.737 0.597 1.334 1.334 1.334s1.334-0.597 1.334-1.334v0z"></path>
</symbol>

<symbol id="heart" viewBox="0 0 32 32">
    <path d="M16 29.867c-0.4 0-0.8-0.133-1.067-0.4l-11.733-11.733c-3.467-3.467-3.467-9.067 0-12.533s9.067-3.467 12.533 0l0.267 0.133 0.267-0.267c0 0 0 0 0 0 3.467-3.467 9.067-3.467 12.533 0v0c1.733 1.733 2.533 3.867 2.533 6.267s-0.933 4.533-2.533 6.267l-11.733 11.733c-0.267 0.4-0.667 0.533-1.067 0.533zM9.333 5.6c-1.467 0-2.933 0.533-4 1.6-2.267 2.267-2.267 6 0 8.267l10.667 10.667 10.667-10.667c1.067-1.067 1.733-2.533 1.733-4.133s-0.667-3.067-1.733-4.133v0c-1.067-1.067-2.533-1.733-4.133-1.733 0 0 0 0 0 0-1.6 0-2.933 0.667-4.133 1.733 0 0 0 0 0 0l-1.467 1.467c-0.533 0.533-1.6 0.533-2.133 0l-1.467-1.467c-0.933-1.067-2.4-1.6-4-1.6z"></path>
</symbol>

<symbol id="fav-heart" viewBox="0 0 32 32">
    <path fill="#e44848" style="fill: var(--color1, #e44848)" d="M27.733 6.133c-2.8-2.8-7.467-2.8-10.4 0 0 0 0 0 0 0l-1.333 1.467-1.467-1.467c-2.8-2.8-7.467-2.8-10.4 0s-2.8 7.467 0 10.4l11.867 11.867 11.867-11.867c2.8-2.933 2.8-7.467-0.133-10.4 0 0 0 0 0 0z"></path>
    <path fill="#e44848" style="fill: var(--color1, #e44848)" d="M16 29.867c-0.4 0-0.8-0.133-1.067-0.4l-11.733-11.733c-3.467-3.467-3.467-9.067 0-12.533s9.067-3.467 12.533 0l0.267 0.133 0.267-0.267c0 0 0 0 0 0 3.467-3.467 9.067-3.467 12.533 0v0c1.733 1.733 2.533 3.867 2.533 6.267s-0.933 4.533-2.533 6.267l-11.733 11.733c-0.267 0.4-0.667 0.533-1.067 0.533zM9.333 5.6c-1.467 0-2.933 0.533-4 1.6-2.267 2.267-2.267 6 0 8.267l10.667 10.667 10.667-10.667c1.067-1.067 1.733-2.533 1.733-4.133s-0.667-3.067-1.733-4.133v0c-1.067-1.067-2.533-1.733-4.133-1.733 0 0 0 0 0 0-1.6 0-2.933 0.667-4.133 1.733 0 0 0 0 0 0l-1.467 1.467c-0.533 0.533-1.6 0.533-2.133 0l-1.467-1.467c-0.933-1.067-2.4-1.6-4-1.6z"></path>
</symbol>

<symbol id="kitchen" viewBox="0 0 32 32" fill="none">
    <path fill="none" stroke="#101828" stroke-linejoin="round" stroke-linecap="round" stroke-miterlimit="4" stroke-width="2.4" d="M25.333 20v-16c-6.421 6.125-6.696 11.091-6.666 16h6.666zM25.333 20v8h-1.333v-4M10.667 5.333v22.667M6.667 5.333v4c0 2.209 1.791 4 4 4s4-1.791 4-4v0-4"></path>
</symbol>

<symbol id="landscape" viewBox="0 0 32 32">
    <path d="M0.512 23.456h30.98c0.184 0 0.352-0.096 0.444-0.256 0.092-0.156 0.092-0.352 0-0.512l-9.412-16.292c-0.092-0.156-0.26-0.256-0.444-0.256s-0.352 0.096-0.444 0.256l-4.9 8.492c-0.14 0.244-0.056 0.556 0.188 0.696s0.556 0.056 0.696-0.188l1.096-1.9 1.3 0.964c0.18 0.132 0.428 0.132 0.608 0l1.456-1.076 1.456 1.076c0.092 0.068 0.196 0.1 0.304 0.1s0.212-0.032 0.304-0.1l1.3-0.964 5.16 8.936h-29.208l5.16-8.936 1.3 0.964c0.18 0.132 0.428 0.132 0.608 0l1.456-1.076 1.456 1.076c0.092 0.068 0.196 0.1 0.304 0.1s0.212-0.032 0.304-0.1l1.3-0.964 4.42 7.664c0.14 0.244 0.452 0.328 0.696 0.188s0.328-0.452 0.188-0.696l-8.228-14.256c-0.092-0.156-0.26-0.256-0.444-0.256s-0.352 0.096-0.444 0.256l-9.404 16.296c-0.092 0.156-0.092 0.352 0 0.512 0.092 0.156 0.26 0.252 0.444 0.252zM23.84 13.416l-1.456-1.076c-0.18-0.132-0.428-0.132-0.608 0l-1.456 1.076-1.092-0.808 2.852-4.936 2.848 4.936-1.088 0.808zM9.92 7.676l2.848 4.936-1.092 0.808-1.456-1.076c-0.18-0.132-0.428-0.132-0.608 0l-1.452 1.072-1.092-0.808 2.852-4.932zM29.448 28.624c0.284 0 0.512-0.228 0.512-0.512s-0.228-0.512-0.512-0.512h-4.4c-0.284 0-0.512 0.228-0.512 0.512s0.228 0.512 0.512 0.512h4.4zM2.044 28.112c0 0.284 0.228 0.512 0.512 0.512h20.448c0.284 0 0.512-0.228 0.512-0.512s-0.228-0.512-0.512-0.512h-20.452c-0.28 0-0.508 0.232-0.508 0.512zM31.488 30.284h-9.664c-0.284 0-0.512 0.228-0.512 0.512s0.228 0.512 0.512 0.512h9.664c0.284 0 0.512-0.228 0.512-0.512s-0.228-0.512-0.512-0.512zM19.78 30.284h-11.648c-0.284 0-0.512 0.228-0.512 0.512s0.228 0.512 0.512 0.512h11.648c0.284 0 0.512-0.228 0.512-0.512s-0.228-0.512-0.512-0.512zM6.092 30.284h-5.58c-0.284 0-0.512 0.228-0.512 0.512s0.228 0.512 0.512 0.512h5.58c0.284 0 0.512-0.228 0.512-0.512s-0.232-0.512-0.512-0.512zM31.488 25h-25.712c-0.284 0-0.512 0.228-0.512 0.512s0.228 0.512 0.512 0.512h25.716c0.284 0 0.512-0.228 0.512-0.512-0.004-0.284-0.232-0.512-0.516-0.512zM0.512 26.020h3.22c0.284 0 0.512-0.228 0.512-0.512s-0.228-0.512-0.512-0.512h-3.22c-0.284 0.004-0.512 0.232-0.512 0.512 0 0.284 0.228 0.512 0.512 0.512z"></path>
    <path d="M16 6.412c1.576 0 2.86-1.284 2.86-2.86s-1.284-2.856-2.86-2.856-2.86 1.284-2.86 2.86 1.284 2.856 2.86 2.856zM16 1.372c1.204 0 2.18 0.98 2.18 2.18s-0.98 2.18-2.18 2.18-2.18-0.98-2.18-2.18 0.976-2.18 2.18-2.18z"></path>
</symbol>

<symbol id="map-pin" viewBox="0 0 29 32">
    <path d="M14.4 31.872c-0.24 0-0.464-0.064-0.672-0.208-0.512-0.336-12.528-8.464-12.528-18.336 0-7.28 5.92-13.2 13.2-13.2s13.2 5.92 13.2 13.2c0 9.856-12.016 18-12.528 18.336-0.208 0.128-0.432 0.208-0.672 0.208zM14.4 2.528c-5.952 0-10.8 4.848-10.8 10.8 0 7.36 8.352 14.048 10.8 15.856 2.448-1.808 10.8-8.512 10.8-15.856 0-5.952-4.848-10.8-10.8-10.8z"></path>
    <path d="M14.4 18.528c-2.864 0-5.2-2.336-5.2-5.2s2.336-5.2 5.2-5.2 5.2 2.336 5.2 5.2-2.336 5.2-5.2 5.2zM14.4 10.528c-1.536 0-2.8 1.264-2.8 2.8s1.264 2.8 2.8 2.8 2.8-1.264 2.8-2.8-1.264-2.8-2.8-2.8z"></path>
</symbol>

<symbol id="microwave" viewBox="0 0 32 32">
    <path d="M19.36 22.88h-12.48c-1.28 0-2.24-0.96-2.24-2.24v-9.28c0-1.28 0.96-2.24 2.24-2.24v0h12.64c1.28 0 2.24 0.96 2.24 2.24v9.12c0 1.28-1.12 2.4-2.4 2.4zM6.88 11.36v9.12h12.64v-9.12c0 0-12.64 0-12.64 0zM26.24 17.12h-1.12c-0.64 0-1.12-0.48-1.12-1.12s0.48-1.12 1.12-1.12h1.12c0.64 0 1.12 0.48 1.12 1.12s-0.48 1.12-1.12 1.12zM26.24 12.48h-1.12c-0.64 0-1.12-0.48-1.12-1.12s0.48-1.12 1.12-1.12h1.12c0.64 0 1.12 0.48 1.12 1.12s-0.48 1.12-1.12 1.12z"></path>
    <path d="M29.76 27.36v0h-27.52c-0.64 0-1.12-0.16-1.6-0.64s-0.64-0.96-0.64-1.6v-18.24c0-0.64 0.16-1.12 0.64-1.6s0.96-0.64 1.6-0.64v0h27.36c1.28 0 2.24 0.96 2.24 2.24v18.24c0 0.64-0.16 1.12-0.64 1.6-0.32 0.48-0.96 0.64-1.44 0.64zM2.24 6.88v18.24h27.52v-18.24h-27.52z"></path>
</symbol>

<symbol id="petrol" viewBox="0 0 32 32">
    <path d="M26.36 9.64l0.013-0.013-4.96-4.96-1.413 1.413 2.813 2.813c-1.266 0.488-2.148 1.695-2.148 3.109 0 0.92 0.374 1.753 0.979 2.355l0 0c0.603 0.602 1.436 0.975 2.355 0.975 0.483 0 0.941-0.103 1.356-0.287l-0.021 0.008v9.614c0 0.736-0.597 1.333-1.333 1.333s-1.333-0.597-1.333-1.333v0-6c0-1.473-1.194-2.667-2.667-2.667v0h-1.333v-9.333c0-1.473-1.194-2.667-2.667-2.667v0h-8c-1.473 0-2.667 1.194-2.667 2.667v0 21.333h13.334v-10h2v6.667c0 1.841 1.492 3.333 3.333 3.333s3.333-1.492 3.333-3.333v0-12.667c0-0.92-0.373-1.76-0.973-2.36zM16 18v7.333h-8v-9.333h8v2zM16 13.333h-8v-6.666h8v6.666zM24 13.333c-0.736 0-1.333-0.597-1.333-1.333s0.597-1.333 1.333-1.333v0c0.736 0 1.333 0.597 1.333 1.333s-0.597 1.333-1.333 1.333v0z"></path>
</symbol>

<symbol id="radio" viewBox="0 0 32 32">
    <path d="M18.72 30.4h-5.44c-5.28 0-8 0-9.76-1.92-1.92-1.76-1.92-4.48-1.92-9.76s0-8 1.92-9.76c1.92-1.92 4.48-1.92 9.76-1.92h5.28c5.28 0 8 0 9.92 1.92 1.92 1.76 1.92 4.32 1.92 9.76 0 5.28 0 8-1.92 9.76-1.76 1.92-4.48 1.92-9.76 1.92zM13.28 9.12c-4.8 0-7.040 0-8.32 1.28s-1.28 3.68-1.28 8.32c0 4.8 0 7.040 1.28 8.32s3.68 1.28 8.32 1.28h5.28c4.8 0 7.040 0 8.32-1.28s1.28-3.68 1.28-8.32c0-4.8 0-7.040-1.28-8.32s-3.68-1.28-8.32-1.28h-5.28z"></path>
    <path d="M9.92 25.76c-1.6 0-3.040-1.44-3.040-3.040s1.44-3.040 3.040-3.040 3.040 1.44 3.040 3.040-1.28 3.040-3.040 3.040zM9.92 21.76c-0.48 0-0.96 0.48-0.96 0.96s0.48 0.96 0.96 0.96 0.96-0.48 0.96-0.96-0.32-0.96-0.96-0.96zM22.72 18.4h-13.44c-2.080 0-3.68-1.6-3.68-3.68v0c0-2.080 1.6-3.68 3.68-3.68h13.28c2.080 0 3.68 1.6 3.68 3.68s-1.6 3.68-3.52 3.68zM7.68 14.72c0 0.96 0.8 1.6 1.6 1.6h13.28c0.96 0 1.6-0.8 1.6-1.6s-0.8-1.6-1.6-1.6h-13.28c-0.8 0-1.6 0.64-1.6 1.6z"></path>
    <path d="M24 23.68h-6.72c-0.64 0-0.96-0.48-0.96-1.12s0.48-1.12 0.96-1.12h6.72c0.64 0 1.12 0.48 1.12 1.12s-0.48 1.12-1.12 1.12zM20 18.4c-0.64 0-1.12-0.48-1.12-1.12v-1.92c0-0.64 0.48-0.96 1.12-0.96s1.12 0.48 1.12 0.96v1.92c0 0.64-0.48 1.12-1.12 1.12zM8.64 9.12c-0.32 0-0.8-0.16-0.96-0.64s0-1.12 0.48-1.44l11.36-5.28c0.48-0.32 1.12 0 1.44 0.48s0 1.12-0.48 1.44l-11.36 5.28c-0.16 0-0.32 0.16-0.48 0.16z"></path>
</symbol>

<symbol id="shower" viewBox="0 0 32 32">
<path d="M14.72 28c-0.64 0-1.28-0.64-1.28-1.28s0.64-1.28 1.28-1.28 1.28 0.64 1.28 1.28v0c0 0.64-0.64 1.28-1.28 1.28zM18.72 24c-0.64 0-1.28-0.64-1.28-1.28s0.64-1.28 1.28-1.28 1.28 0.64 1.28 1.28v0c0 0.64-0.64 1.28-1.28 1.28zM13.28 22.56c-0.64 0-1.28-0.64-1.28-1.28s0.64-1.28 1.28-1.28c0.64 0 1.28 0.64 1.28 1.28v0c0 0.8-0.48 1.28-1.28 1.28zM6.72 21.28c-0.32 0-0.64-0.16-0.96-0.32-0.48-0.48-0.48-1.28 0-1.76l1.12-1.12c-1.92-2.72-1.92-6.4 0-9.12l-2.4-2.72c-0.48-0.48-0.48-1.28 0-1.76s1.28-0.48 1.76 0l2.56 2.56c1.28-0.96 2.88-1.44 4.48-1.44s3.36 0.48 4.64 1.44l1.12-1.12c0.48-0.48 1.28-0.48 1.76 0s0.48 1.28 0 1.76l-13.28 13.28c-0.16 0.16-0.48 0.32-0.8 0.32zM13.44 8.16c0 0-0.16 0 0 0-1.44 0-2.88 0.64-3.84 1.6-1.76 1.76-1.92 4.32-0.8 6.4l7.2-7.36c-0.8-0.48-1.6-0.64-2.56-0.64zM22.72 20c-0.64 0-1.28-0.64-1.28-1.28s0.64-1.28 1.28-1.28 1.28 0.64 1.28 1.28v0c0 0.64-0.64 1.28-1.28 1.28zM17.28 18.56c-0.64 0-1.28-0.64-1.28-1.28s0.64-1.28 1.28-1.28c0.64 0 1.28 0.64 1.28 1.28v0c0 0.8-0.48 1.28-1.28 1.28zM26.72 16c-0.64 0-1.28-0.64-1.28-1.28s0.64-1.28 1.28-1.28 1.28 0.64 1.28 1.28v0c0 0.64-0.64 1.28-1.28 1.28zM21.28 14.56c-0.64 0-1.28-0.64-1.28-1.28s0.64-1.28 1.28-1.28 1.28 0.64 1.28 1.28v0c0 0.8-0.48 1.28-1.28 1.28z"></path>
</symbol>

<symbol id="star" viewBox="0 0 32 32">
    <path  stroke-linejoin="miter" stroke-linecap="butt" stroke-miterlimit="4" stroke-width="2.4" d="M12.4 9.394l3.6-6.822 3.6 6.822c0.318 0.604 0.9 1.024 1.57 1.14l7.6 1.316-5.376 5.532c-0.385 0.396-0.622 0.937-0.622 1.533 0 0.11 0.008 0.219 0.024 0.325l-0.001-0.012 1.1 7.636-6.924-3.404c-0.283-0.142-0.617-0.225-0.97-0.225s-0.687 0.083-0.983 0.231l0.013-0.006-6.924 3.404 1.1-7.636c0.014-0.094 0.022-0.202 0.022-0.313 0-0.596-0.237-1.138-0.623-1.534l0.001 0-5.378-5.532 7.6-1.314c0.687-0.122 1.254-0.547 1.566-1.13l0.006-0.012z"></path>
</symbol>

<symbol id="toilet" viewBox="0 0 32 32">
    <path d="M24 4c1.939 0 3.269 1.648 4.040 3.312 0.762 1.654 1.224 3.811 1.286 6.147l0.006 0.541v12.667c0 0.001 0 0.002 0 0.003 0 0.735-0.596 1.331-1.331 1.331-0.019 0-0.038-0-0.057-0.001l0.003 0-0.166-0.019-3.781-0.629-3.781 0.629c-0.066 0.012-0.142 0.018-0.22 0.018-0.093 0-0.184-0.010-0.272-0.028l0.009 0.002-0.157-0.042-3.579-1.192-3.579 1.192c-0.126 0.043-0.27 0.068-0.421 0.068-0.68 0-1.241-0.509-1.323-1.167l-0.001-0.006-0.010-0.16v-3.902c-0.709 0.734-1.595 1.237-2.667 1.237-1.939 0-3.269-1.648-4.040-3.312-0.819-1.781-1.293-4.147-1.293-6.688s0.472-4.907 1.293-6.688c0.736-1.59 1.981-3.163 3.779-3.301l0.261-0.011h16zM24 6.667h-12.291c0.12 0.213 0.23 0.429 0.33 0.646 0.821 1.779 1.296 4.144 1.296 6.686v10.816l2.245-0.747c0.126-0.043 0.27-0.068 0.421-0.068s0.295 0.025 0.43 0.071l-0.009-0.003 3.688 1.229 3.672-0.613c0.066-0.012 0.142-0.018 0.219-0.018s0.153 0.007 0.227 0.019l-0.008-0.001 2.448 0.408v-11.093c0-2.245-0.424-4.213-1.050-5.568-0.677-1.472-1.347-1.765-1.618-1.765zM8 6.667c-0.272 0-0.941 0.293-1.616 1.763-0.629 1.357-1.051 3.325-1.051 5.57s0.422 4.213 1.050 5.568c0.677 1.472 1.347 1.765 1.618 1.765 0.272 0 0.939-0.293 1.616-1.763 0.627-1.357 1.051-3.325 1.051-5.57s-0.424-4.213-1.050-5.568c-0.678-1.472-1.347-1.766-1.618-1.766zM8 11.333c0.736 0 1.333 1.194 1.333 2.667 0 1.472-0.597 2.667-1.333 2.667s-1.333-1.194-1.333-2.667c0-1.472 0.597-2.667 1.333-2.667z"></path>
</symbol>

<symbol id="TV" viewBox="0 0 32 32">
    <path d="M21.6 29.332h-11.2c-2.372 0-3.68 0-4.82-0.58-1.012-0.516-1.816-1.32-2.332-2.332-0.58-1.14-0.58-2.448-0.58-4.82v-5.868c0-2.372 0-3.68 0.58-4.82 0.516-1.012 1.32-1.816 2.332-2.332 1.14-0.58 2.448-0.58 4.82-0.58h1.8l-3.7-2.96c-0.576-0.46-0.668-1.3-0.208-1.876s1.3-0.668 1.876-0.208l5.832 4.668 5.832-4.664c0.576-0.46 1.416-0.368 1.876 0.208s0.368 1.416-0.208 1.876l-3.7 2.956h1.8c2.372 0 3.68 0 4.82 0.58 1.012 0.516 1.816 1.32 2.332 2.332 0.58 1.14 0.58 2.448 0.58 4.82v5.868c0 2.372 0 3.68-0.58 4.82-0.516 1.012-1.32 1.816-2.332 2.332-1.14 0.58-2.448 0.58-4.82 0.58zM21.332 26.668h0.268c1.96 0 3.040 0 3.612-0.292 0.504-0.256 0.908-0.66 1.164-1.164 0.292-0.572 0.292-1.652 0.292-3.612v-5.868c0-1.96 0-3.040-0.292-3.612-0.256-0.504-0.66-0.908-1.164-1.164-0.572-0.292-1.652-0.292-3.612-0.292h-0.268v16.004zM10.4 10.668c-1.96 0-3.040 0-3.612 0.292-0.504 0.256-0.908 0.66-1.164 1.164-0.292 0.572-0.292 1.652-0.292 3.612v5.864c0 1.96 0 3.040 0.292 3.612 0.256 0.504 0.66 0.908 1.164 1.164 0.572 0.292 1.652 0.292 3.612 0.292h8.268v-16h-2.66c-0.004 0-0.012 0-0.016 0h-5.592zM24.012 24h-0.012c-0.736 0-1.332-0.596-1.332-1.332s0.596-1.332 1.332-1.332h0.012c0.736 0 1.332 0.596 1.332 1.332s-0.596 1.332-1.332 1.332zM24.012 20h-0.012c-0.736 0-1.332-0.596-1.332-1.332s0.596-1.332 1.332-1.332h0.012c0.736 0 1.332 0.596 1.332 1.332s-0.596 1.332-1.332 1.332zM24.012 16h-0.012c-0.736 0-1.332-0.596-1.332-1.332s0.596-1.332 1.332-1.332h0.012c0.736 0 1.332 0.596 1.332 1.332 0.004 0.736-0.596 1.332-1.332 1.332z"></path>
</symbol>

<symbol id="tv1" viewBox="0 0 32 32">
<path d="M20 30.9h-8c-0.5 0-0.9-0.4-0.9-0.9s0.4-0.9 0.9-0.9h8c0.5 0 0.9 0.4 0.9 0.9s-0.4 0.9-0.9 0.9zM24 26.9h-16c-2.7 0-4.9-2.2-4.9-4.9v-10c0-2.7 2.2-4.9 4.9-4.9h5.8l-4.4-4.5c-0.4-0.3-0.4-0.9 0-1.2 0.4-0.4 0.9-0.4 1.3 0l5.3 5.3 5.4-5.4c0.4-0.4 0.9-0.4 1.3 0s0.4 0.9 0 1.3l-4.5 4.5h5.8c2.7 0 4.9 2.2 4.9 4.9v10c0 2.7-2.2 4.9-4.9 4.9zM8 8.9c-1.7 0-3.1 1.4-3.1 3.1v10c0 1.7 1.4 3.1 3.1 3.1h16c1.7 0 3.1-1.4 3.1-3.1v-10c0-1.7-1.4-3.1-3.1-3.1h-8c0 0 0 0 0 0h-8z"></path>
</symbol>

<symbol id="users" viewBox="0 0 32 32">
    <path d="M9.067 24.133h-4.4c-0.267 0-0.4-0.133-0.534-0.266-0.133-0.134-0.266-0.4-0.133-0.667 0.8-2.267 2.8-3.6 5.067-3.6 2.8 0 5.066-2.4 5.066-5.2s-2.266-5.467-5.066-5.467-5.067 2.4-5.067 5.334c0 1.333 0.533 2.666 1.333 3.6-1.733 0.933-3.066 2.4-3.866 4.4-0.081 0.288-0.128 0.62-0.128 0.962 0 0.787 0.247 1.517 0.668 2.116l-0.008-0.012c0.667 0.934 1.6 1.467 2.667 1.467h4.4c0.8 0 1.333-0.533 1.333-1.333s-0.533-1.334-1.333-1.334zM6.667 14.267c0-1.467 1.066-2.534 2.4-2.534 1.333 0 2.4 1.2 2.4 2.534 0 1.466-1.067 2.533-2.4 2.533-1.334 0-2.4-1.2-2.4-2.533z"></path>
    <path d="M30.533 21.467c-0.914-2.407-2.658-4.325-4.875-5.441l-0.057-0.026c1.2-1.067 1.867-2.667 1.867-4.533 0-3.467-2.667-6.267-5.867-6.267s-5.867 2.8-5.867 6.267c0 1.733 0.667 3.333 1.867 4.533-2.274 1.142-4.019 3.060-4.91 5.399l-0.023 0.069c-0.667 1.2-0.4 2.533 0.266 3.6 0.667 1.066 1.867 1.6 3.067 1.6h11.067c1.2 0 2.4-0.667 3.066-1.6 0.8-1.067 0.934-2.4 0.4-3.6zM18.267 11.6c0-2 1.466-3.6 3.2-3.6 1.733 0 3.2 1.6 3.2 3.6s-1.467 3.6-3.2 3.6c-1.734 0-3.2-1.733-3.2-3.6zM27.867 23.6c-0.134 0.133-0.4 0.533-0.8 0.533h-11.067c-0.533 0-0.8-0.4-0.8-0.533-0.153-0.192-0.246-0.438-0.246-0.706 0-0.18 0.042-0.35 0.116-0.501l-0.003 0.007c1.066-2.8 3.733-4.667 6.533-4.667s5.467 1.867 6.533 4.667c0.134 0.533-0.133 1.067-0.266 1.2z"></path>
</symbol>

<symbol id="van" viewBox="0 0 46 32">
    <path d="M2.608 1.8h12.409c0 0 0.001 0 0.001 0 0.108 0 0.206-0.043 0.277-0.113l-0 0 1.192-1.161c0.332-0.325 0.788-0.526 1.29-0.526 0.003 0 0.005 0 0.007 0h18.817c0.004-0 0.008-0 0.012-0 0.894 0 1.683 0.446 2.158 1.127l0.006 0.009 2.255 3.301c0.32 0.469 0.35 1.067 0.078 1.563-0.273 0.483-0.783 0.805-1.368 0.805-0.003 0-0.006 0-0.009-0h-9.698v0.957h4.967c0.006-0 0.014-0 0.021-0 1.328 0 2.472 0.789 2.988 1.925l0.008 0.021 2.909 6.649 2.549 0.994c1.36 0.531 2.239 1.798 2.239 3.227v6.158c0 0.919-0.766 1.666-1.707 1.666h-2.965c-0.344 2.038-2.162 3.599-4.35 3.599s-4.007-1.561-4.35-3.6h-16.203c-0.345 2.040-2.165 3.6-4.351 3.6-2.185 0-4.005-1.561-4.35-3.6h-5.92c-0.839 0-1.519-0.663-1.519-1.479v-22.578c0-1.403 1.169-2.544 2.608-2.544zM36.693 30.594c1.637 0 2.969-1.299 2.969-2.897 0-1.597-1.333-2.896-2.969-2.896-1.638 0-2.969 1.299-2.969 2.896 0 1.598 1.331 2.897 2.969 2.897zM30.034 26.994h2.307l0.019-0.104 0.014-0.071c0.011-0.055 0.025-0.11 0.039-0.165l0.009-0.034c0.017-0.065 0.035-0.129 0.057-0.194 0.005-0.018 0.011-0.037 0.018-0.056 0.034-0.102 0.059-0.171 0.086-0.238l-0.011 0.032 0.047-0.114 0.034-0.075 0.049-0.109 0.038-0.075 0.055-0.103 0.040-0.074 0.059-0.101 0.043-0.071 0.066-0.101 0.045-0.065c0.025-0.035 0.050-0.071 0.078-0.105l0.040-0.055c0.089-0.113 0.173-0.212 0.261-0.308l-0.003 0.004 0.042-0.043 0.096-0.099 0.057-0.053c0.075-0.072 0.153-0.142 0.234-0.209l0.007-0.005 0.066-0.051c0.042-0.034 0.094-0.074 0.148-0.113l0.013-0.009 0.097-0.067 0.069-0.046c0.034-0.023 0.069-0.043 0.104-0.065l0.069-0.041c0.038-0.023 0.077-0.043 0.115-0.065l0.059-0.034c0.025-0.015 0.081-0.043 0.137-0.069l0.032-0.014 0.013-0.006c0.062-0.030 0.123-0.057 0.186-0.082 0.019-0.009 0.041-0.016 0.061-0.024l0.13-0.050 0.074-0.026c0.139-0.050 0.314-0.099 0.493-0.138l0.030-0.006 0.087-0.018c0.087-0.018 0.201-0.036 0.317-0.049l0.019-0.002 0.082-0.009 0.143-0.011c0.023 0 0.047-0.003 0.071-0.003 0.065-0.004 0.14-0.006 0.216-0.006s0.151 0.002 0.226 0.006l-0.010-0c0.023 0 0.046 0.002 0.071 0.005 0.047 0.002 0.095 0.006 0.143 0.011 0.027 0.001 0.055 0.006 0.082 0.008 0.164 0.018 0.308 0.042 0.449 0.074l-0.026-0.005c0.208 0.044 0.383 0.093 0.554 0.153l-0.030-0.009 0.074 0.026 0.13 0.050 0.061 0.023c0.063 0.026 0.126 0.054 0.186 0.083l0.013 0.006c0.057 0.027 0.113 0.055 0.168 0.085l0.059 0.033c0.040 0.021 0.079 0.042 0.117 0.065l0.069 0.041 0.103 0.065 0.070 0.046 0.097 0.069c0.064 0.045 0.116 0.085 0.167 0.126l-0.006-0.005 0.066 0.051c0.089 0.075 0.167 0.145 0.244 0.218l-0.003-0.003 0.057 0.053 0.096 0.099 0.042 0.043c0.046 0.048 0.089 0.098 0.131 0.149l0.017 0.021c0.037 0.045 0.073 0.088 0.109 0.135l0.040 0.055 0.078 0.105 0.045 0.065 0.066 0.101 0.043 0.071 0.058 0.101 0.041 0.074 0.055 0.103 0.038 0.075c0.017 0.037 0.034 0.072 0.049 0.109l0.034 0.074c0.020 0.043 0.045 0.105 0.068 0.168l0.006 0.020 0.047 0.134 0.019 0.057c0.019 0.064 0.039 0.128 0.057 0.194l0.008 0.034c0.014 0.054 0.026 0.109 0.038 0.163l0.015 0.071 0.019 0.104h2.963c0.001 0 0.002 0 0.003 0 0.144 0 0.261-0.116 0.263-0.259v-2.946h-1.125v-1.406h1.125v-1.806c0-0.851-0.523-1.606-1.334-1.922l-2.697-1.051h-10.208v9.391zM30.034 16.197h9.257l-2.598-5.939c-0.294-0.648-0.936-1.090-1.68-1.090-0.004 0-0.009 0-0.013 0h-4.966v7.030zM11.789 30.594c1.638 0 2.969-1.299 2.969-2.897 0-1.597-1.331-2.896-2.969-2.896-0.051 0-0.102 0.001-0.152 0.005-1.365 0.067-2.488 1.038-2.757 2.309-0.027 0.126-0.047 0.274-0.056 0.426l-0 0.008c-0.002 0.040-0.003 0.086-0.003 0.133 0 0.005 0 0.011 0 0.016v-0.001c0 1.598 1.331 2.897 2.968 2.897zM1.441 22.383h1.125v1.406h-1.126v3.131c0 0.041 0.034 0.074 0.077 0.074h5.92l0.021-0.103c0.005-0.024 0.008-0.049 0.014-0.073 0.011-0.054 0.023-0.107 0.038-0.16l0.009-0.038c0.017-0.065 0.037-0.129 0.057-0.194l0.019-0.057 0.046-0.133 0.029-0.072c0.041-0.106 0.068-0.169 0.096-0.231l-0.016 0.040 0.049-0.106c0.011-0.026 0.025-0.051 0.039-0.077l0.053-0.103 0.042-0.074c0.081-0.139 0.151-0.249 0.225-0.356l-0.013 0.019 0.077-0.104 0.042-0.057c0.034-0.045 0.069-0.088 0.106-0.131l0.018-0.023c0.043-0.050 0.087-0.101 0.131-0.149l0.043-0.046 0.096-0.097 0.057-0.054 0.088-0.083 0.063-0.054 0.090-0.075 0.066-0.054c0.039-0.032 0.092-0.071 0.144-0.11l0.016-0.011c0.032-0.023 0.064-0.046 0.097-0.066l0.069-0.047 0.103-0.065 0.069-0.041 0.117-0.065 0.061-0.034c0.055-0.029 0.111-0.056 0.167-0.082 0.005-0.002 0.009-0.006 0.015-0.007 0.061-0.030 0.123-0.057 0.185-0.082l0.191-0.074 0.075-0.026c0.012-0.005 0.052-0.019 0.092-0.031l0.028-0.008c0.101-0.033 0.236-0.069 0.374-0.099l0.030-0.005 0.086-0.019c0.087-0.018 0.201-0.036 0.317-0.049l0.019-0.002 0.082-0.009 0.144-0.011c0.023 0 0.046-0.003 0.070-0.003 0.065-0.004 0.14-0.006 0.216-0.006s0.151 0.002 0.226 0.006l-0.010-0c0.024 0 0.047 0.002 0.071 0.005 0.048 0.002 0.096 0.006 0.143 0.011 0.027 0.001 0.055 0.006 0.082 0.008 0.093 0.010 0.166 0.021 0.239 0.033l-0.024-0.003 0.121 0.021 0.087 0.018c0.138 0.029 0.246 0.056 0.352 0.088l-0.031-0.008 0.082 0.025c0.040 0.011 0.080 0.025 0.119 0.039l0.075 0.026 0.13 0.050 0.061 0.023c0.153 0.064 0.274 0.122 0.391 0.186l-0.024-0.012 0.061 0.033 0.117 0.065 0.069 0.041 0.103 0.065 0.070 0.046 0.096 0.069c0.062 0.043 0.114 0.083 0.165 0.124l-0.005-0.004 0.067 0.054c0.031 0.024 0.061 0.050 0.090 0.075l0.062 0.054 0.146 0.137 0.096 0.098 0.042 0.046c0.085 0.092 0.169 0.191 0.249 0.293l0.008 0.010 0.041 0.055c0.026 0.034 0.053 0.070 0.077 0.105l0.045 0.066c0.051 0.073 0.107 0.161 0.159 0.252l0.010 0.019 0.041 0.074 0.054 0.103 0.038 0.075 0.050 0.109 0.033 0.074c0.017 0.039 0.032 0.078 0.047 0.117l0.027 0.071c0.017 0.045 0.032 0.089 0.047 0.135l0.019 0.055c0.021 0.064 0.039 0.13 0.057 0.194l0.007 0.032c0.015 0.055 0.027 0.111 0.040 0.167l0.013 0.069 0.022 0.106h12.453v-20.891c0-0.389 0.322-0.704 0.72-0.704h10.419c0.017 0 0.072 0 0.106-0.063 0.010-0.016 0.016-0.035 0.016-0.055 0-0.025-0.008-0.047-0.023-0.065l0 0-2.254-3.299c-0.216-0.31-0.571-0.511-0.972-0.511-0.002 0-0.003 0-0.005 0h-18.817c-0 0-0.001 0-0.001 0-0.108 0-0.206 0.043-0.277 0.113l0-0-1.192 1.162c-0.332 0.324-0.787 0.525-1.289 0.525-0.003 0-0.006 0-0.009-0h-12.408c-0.004-0-0.008-0-0.013-0-0.632 0-1.145 0.508-1.154 1.137v18.040z"></path>
    <path d="M5.536 7.198h8.814c1.019 0 1.848 0.809 1.848 1.802v4.101c0 0.994-0.83 1.802-1.848 1.802h-8.815c-1.018 0-1.847-0.808-1.847-1.802v-4.101c0-0.994 0.829-1.802 1.848-1.802zM5.129 13.101c0 0.217 0.183 0.397 0.407 0.397h8.814c0.001 0 0.003 0 0.005 0 0.22 0 0.399-0.177 0.402-0.396v-4.101c0-0.218-0.183-0.397-0.407-0.397h-8.815c-0.001 0-0.002 0-0.003 0-0.22 0-0.399 0.177-0.402 0.396v4.101z"></path>
</symbol>

<symbol id="water" viewBox="0 0 32 32">
<path d="M16 30.24c-6.24 0-10.24-4-10.24-10.24s6.080-13.92 8.8-16.96c0.64-0.8 1.92-0.96 2.72-0.16l0.16 0.16c2.56 3.040 8.8 10.88 8.8 16.96 0 6.24-4 10.24-10.24 10.24zM16 4.96c-3.84 4.64-7.84 10.88-7.84 15.040 0 4.96 2.88 7.84 7.84 7.84s7.84-2.88 7.84-7.84c0-4.32-4-10.56-7.84-15.040z"></path>
<path d="M16.96 26.24c-0.64 0-1.28-0.48-1.28-1.28s0.48-1.28 1.28-1.28c1.76 0 3.36-1.44 3.36-3.36 0-0.64 0.48-1.28 1.28-1.28s1.28 0.48 1.28 1.28c-0.16 3.36-2.72 5.92-5.92 5.92z"></path>
</symbol>
</defs>
</svg>
