<!-- Generated by IcoMoon.io -->
<svg version="1.1" xmlns="http://www.w3.org/2000/svg" width="384" height="448" viewBox="0 0 384 448">
<g id="icomoon-ignore">
</g>
<path fill="#E44848" d="M96.001 304c0-17.75-14.25-32-32-32s-32 14.25-32 32 14.25 32 32 32 32-14.25 32-32zM352 304c0-17.75-14.25-32-32-32s-32 14.25-32 32 14.25 32 32 32 32-14.25 32-32zM340.501 205l-18-96c-1.5-7.5-8-13-15.75-13h-229.5c-7.75 0-14.25 5.5-15.75 13l-18 96c-1.75 10 5.75 19 15.75 19h265.5c10 0 17.5-9 15.75-19zM284 52c0-6.75-5.25-12-12-12h-160c-6.5 0-12 5.25-12 12s5.5 12 12 12h160c6.75 0 12-5.25 12-12zM384 233.25v150.75h-32v32c0 17.75-14.25 32-32 32s-32-14.25-32-32v-32h-192v32c0 17.75-14.25 32-32 32s-32-14.25-32-32v-32h-32v-150.75c0-20.5 1.75-35.75 6.25-55.75l25.75-113.5c4.75-40 74.75-64 160-64s155.25 24 160 64l26.25 113.5c4.5 20 5.75 35.25 5.75 55.75z"></path>
</svg>
